<?xml version="1.0" encoding="UTF-8"?>
<svg width="65px" height="65px" viewBox="0 0 65 65" version="1.1" xmlns="http://www.w3.org/2000/svg" xmlns:xlink="http://www.w3.org/1999/xlink">
    <!-- Generator: Sketch 55.2 (78181) - https://sketchapp.com -->
    <title>Artboard Copy 47</title>
    <desc>Created with Sketch.</desc>
    <defs>
        <path d="M32.5,65 C41.6499663,65 50.7628374,62.526071 56.6691607,56.4409829 C62.3491205,50.5891097 65,41.2992881 65,32.5 C65,23.3037378 62.808431,14.2548032 56.6691607,8.34264128 C50.82581,2.71545209 41.2529922,0 32.5,0 C22.8850693,0 14.3137192,3.7459109 8.36336134,10.3822553 C3.2055282,16.1347089 0,24.1656763 0,32.5 C0,40.5069945 4.41367787,47.0673131 9.21479217,52.7317312 C15.1763207,59.7652214 22.5577401,65 32.5,65 Z" id="path-1"></path>
    </defs>
    <g id="Artboard-Copy-47" stroke="none" stroke-width="1" fill="none" fill-rule="evenodd">
        <g id="Rectangle">
            <mask id="mask-2" fill="white">
                <use xlink:href="#path-1"></use>
            </mask>
            <g id="Mask"></g>
            <rect fill="#F86FDF" mask="url(#mask-2)" x="0" y="0" width="65" height="65"></rect>
        </g>
        <g id="Group-2" transform="translate(-12.314453, -12.314453)">
            <g id="Group" transform="translate(44.797640, 44.719589) rotate(50.000000) translate(-44.797640, -44.719589) translate(13.376742, 12.663925)">
                <path d="M33.484106,58.778434 C36.4265946,58.778434 44.7826623,58.9884648 49.6969912,55.8720585 C58.5194409,50.2773296 60.3783941,43.5198055 60.3783941,33.3687753 C60.3783941,25.2652068 59.7971796,15.9211331 53.2537886,10.3124555 C51.3578395,8.68733982 45.5068563,5.05377262 39.0909419,3.77980503 C33.5321778,2.67603638 27.4555186,3.77347951 24.3078255,4.22122364 C19.0354485,4.9711938 12.2632128,9.6002756 10.0923065,11.3768732 C5.09242525,15.46861 1.15270561,26.3360297 1.79480104,33.1710891 C2.632703,42.090495 9.55410188,49.2722652 13.2480578,53.0562568 C18.3491097,58.2816405 25.1657144,58.778434 33.484106,58.778434 Z" id="Oval" fill-opacity="0.302993881" fill="#73EBEA"></path>
                <path d="M34.2245185,57.3772757 C36.7170049,57.37637 45.1010129,57.4592318 48.4006276,53.7433821 C54.5994863,46.762559 55.6039117,41.6441168 55.6069658,32.7184904 C55.609401,25.593162 52.9217719,18.0133397 47.3807649,13.0836233 C44.3842406,10.4176792 34.1095437,5.49270834 28.3728515,7.04353417 C22.6361593,8.59436 14.9714646,13.5336685 12.6895605,17.1167055 C9.64985732,21.8896359 7.99516038,24.1513564 7.48554683,29.8198652 C7.12502843,33.8299659 7.27720282,35.8715023 8.1474313,39.6470964 C8.89961097,42.9105212 11.0499578,46.276933 12.2817796,47.7950391 C16.246666,52.6813935 27.1782797,57.3796353 34.2245185,57.3772757 Z" id="Oval-Copy" fill-opacity="0.469023164" fill="#73EBEA" transform="translate(31.455238, 32.062545) rotate(-20.000000) translate(-31.455238, -32.062545) "></path>
                <path d="M31.2652068,54.2013447 C33.4208101,54.2013447 42.4070601,52.0166112 44.0906663,50.9107539 C50.5584656,46.6624547 54.2834814,44.0217067 54.2820762,36.2972514 C54.2809538,30.130818 50.3226278,21.6728471 45.5283049,17.4040349 C42.9355803,15.0955015 39.5709612,13.6861329 35.820044,13.2375824 C33.1161608,12.9142406 26.2146537,13.8501947 22.2929025,15.0279068 C18.3711513,16.2056189 17.499948,17.2870985 15.9896621,18.7715449 C12.5697401,22.1329553 11.5746008,25.6126112 11.5755077,30.6000447 C11.5755077,32.8409957 12.1531671,36.4727716 12.9074874,39.7406586 C13.5594821,42.565248 14.9285385,44.3533222 15.9945563,45.6676876 C19.4257662,49.8982581 25.1713336,54.2002347 31.2652068,54.2013447 Z" id="Oval-Copy-2" fill-opacity="0.615111451" fill="#73EBEA" transform="translate(32.928792, 33.687160) rotate(10.000000) translate(-32.928792, -33.687160) "></path>
                <path d="M32.3119839,50.3909416 C34.2551521,50.3912946 40.3487321,49.5465534 41.8664186,48.5524894 C47.6968153,44.733659 49.4762717,42.0140097 49.475006,35.0704335 C49.4739943,29.527376 48.9487824,23.8915784 44.6269414,20.0543077 C42.2897306,17.9791479 38.8312089,16.13405 35.4499455,15.7308439 C33.0125305,15.4401891 25.5574523,15.8027346 23.4515654,16.6842405 C21.6407756,17.4422212 19.1309573,18.715046 17.7695103,20.0494268 C14.6866221,23.0710259 13.7895536,26.198917 13.7903707,30.6821619 C13.7907387,32.6965711 14.3111011,35.9612043 14.9910827,38.8987347 C15.578823,41.4377813 16.8129584,43.045096 17.7739198,44.2265899 C20.8669829,48.0294847 26.8186631,50.3899432 32.3119839,50.3909416 Z" id="Oval-Copy-3" fill="#73EBEA" transform="translate(31.632688, 33.011627) rotate(-100.000000) translate(-31.632688, -33.011627) "></path>
                <path d="M32.1253681,47.4651292 C33.7302833,47.4643879 38.7635863,46.7615337 40.0176141,45.9374403 C44.8351307,42.7715747 46.3062803,40.5182065 46.3089397,34.7675131 C46.3110488,30.1767341 45.8802633,25.5094258 42.3127809,22.3336802 C40.3835201,20.616267 37.5280157,19.0899875 34.7355531,18.7578468 C32.7225808,18.5184201 26.5650362,18.8226413 24.8252576,19.5538261 C23.3292735,20.1825502 21.2556686,21.2380412 20.130502,22.3439032 C17.5826518,24.8480396 16.8400729,27.4390465 16.8383598,31.1520851 C16.8375915,32.8204257 17.2656345,35.5239299 17.8256854,37.9564417 C18.309764,40.0589768 19.328214,41.3895049 20.1212689,42.3675119 C22.6738886,45.5154398 27.5882859,47.4672185 32.1253681,47.4651292 Z" id="Oval-Copy-4" fill-opacity="0.28982736" fill="#A2F29F" transform="translate(31.573650, 33.071300) rotate(-60.000000) translate(-31.573650, -33.071300) "></path>
                <path d="M31.9707115,44.6322156 C33.2531792,44.6316218 37.2752292,44.0692047 38.2773077,43.4097753 C42.1269266,40.8764886 43.302505,39.073372 43.3046329,34.471742 C43.3063204,30.7982603 42.9620873,27.0635411 40.1113582,24.5223526 C38.5697107,23.1481018 36.2879135,21.9267941 34.0564917,21.6610207 C32.4479507,21.4694355 27.5275334,21.7128723 26.1372977,22.2979576 C24.9418751,22.8010552 23.2848828,23.6456463 22.3857757,24.5305432 C20.3498192,26.5343218 19.7564324,28.6076121 19.7550616,31.5787373 C19.7544469,32.9137217 20.0964894,35.0770304 20.544018,37.0234944 C20.9308381,38.7059154 21.7446682,39.7705863 22.378388,40.5531743 C24.418153,43.0721041 28.3451857,44.6338897 31.9707115,44.6322156 Z" id="Oval-Copy-6" fill-opacity="0.478146853" fill="#A2F29F" transform="translate(31.529847, 33.114461) rotate(-36.000000) translate(-31.529847, -33.114461) "></path>
                <path d="M32.3253117,40.0229942 C33.2157587,40.0226146 36.0083609,39.66357 36.7041269,39.2425946 C39.3770055,37.625361 40.1932361,36.4742638 40.1947118,33.5366161 C40.1958822,31.1914916 39.9568718,28.8072737 37.9775436,27.1849981 C36.9071416,26.3076868 35.3228365,25.5280136 33.7735086,25.3583466 C32.6566613,25.2360405 29.2403018,25.3914507 28.2750292,25.7649655 C27.4450198,26.0861398 26.294532,26.6253214 25.6702614,27.1902336 C24.2566504,28.4694322 23.8446491,29.7930062 23.8436984,31.6897513 C23.8432721,32.5419958 24.0807609,33.9230365 24.3914911,35.1656451 C24.6600699,36.2396905 25.2251313,36.9193684 25.665138,37.4189668 C27.081395,39.0270328 29.8080252,40.0240642 32.3253117,40.0229942 Z" id="Oval-Copy-7" fill="#A2F29F" transform="translate(32.019205, 32.670141) rotate(-36.000000) translate(-32.019205, -32.670141) "></path>
            </g>
        </g>
        <g id="Group-3" opacity="0.709705171" transform="translate(25.000000, 25.000000)" stroke="#000000" stroke-linecap="round" stroke-width="3">
            <path d="M7.47748356,0.0330396476 L7.47748356,14.9827304" id="Line-2"></path>
            <path d="M7.49214958,0.0353234164 L7.49214958,14.9194453" id="Line-2-Copy" transform="translate(7.492150, 7.477384) rotate(90.000000) translate(-7.492150, -7.477384) "></path>
        </g>
    </g>
</svg>